<svg width="104" height="104" viewBox="0 0 104 104" fill="none" xmlns="http://www.w3.org/2000/svg">
<path d="M104 52C104 80.7188 80.7188 104 52 104C23.2812 104 0 80.7188 0 52C0 23.2812 23.2812 0 52 0C80.7188 0 104 23.2812 104 52Z" fill="#F5F5F5"/>
<path d="M20.76 62.448V34.848H22.92V61.056C22.92 63.648 22.52 65.936 21.72 67.92C20.92 69.904 19.992 71.44 18.936 72.528C17.88 73.616 16.52 74.752 14.856 75.936L13.848 74.496C18.456 71.136 20.76 67.12 20.76 62.448Z" fill="#385745"/>
<path d="M35.9835 55.2L31.5195 66H29.2635L42.3195 34.656H43.6155L56.7675 66H54.3195L49.8075 55.2H35.9835ZM42.8475 38.208C42.3675 39.648 41.9355 40.848 41.5515 41.808L36.7515 53.328H49.0395L44.2875 41.856C43.5515 40.064 43.0715 38.848 42.8475 38.208Z" fill="#385745"/>
<path d="M63.0881 66V34.656H64.1441L84.5921 58.176C85.3281 59.008 86.0001 59.84 86.6081 60.672C87.2481 61.472 87.5841 61.888 87.6161 61.92C87.5521 61.152 87.5201 59.648 87.5201 57.408V34.848H89.7281V66.192H88.6721L67.8401 42.288L65.2001 39.072C65.2641 39.712 65.2961 41.216 65.2961 43.584V66H63.0881Z" fill="#385745"/>
</svg>
