<svg width="794" height="479" viewBox="0 0 794 479" fill="none" xmlns="http://www.w3.org/2000/svg">
<circle cx="126.5" cy="345.5" r="122" stroke="#385745" stroke-width="9"/>
<circle cx="126.5" cy="345.5" r="7.5" fill="#385745"/>
<line x1="126.5" y1="219" x2="126.5" y2="467" stroke="#385745"/>
<line x1="158.577" y1="223.355" x2="94.3894" y2="462.904" stroke="#385745"/>
<line x1="188.433" y1="235.863" x2="64.433" y2="450.637" stroke="#385745"/>
<line x1="214.035" y1="255.672" x2="38.6723" y2="431.035" stroke="#385745"/>
<line x1="233.637" y1="281.433" x2="18.8629" y2="405.433" stroke="#385745"/>
<line x1="245.904" y1="311.389" x2="6.3546" y2="375.577" stroke="#385745"/>
<line x1="250" y1="343.5" x2="2" y2="343.5" stroke="#385745"/>
<line x1="245.645" y1="375.577" x2="6.09578" y2="311.389" stroke="#385745"/>
<line x1="233.137" y1="405.433" x2="18.3629" y2="281.433" stroke="#385745"/>
<line x1="213.328" y1="431.035" x2="37.9652" y2="255.672" stroke="#385745"/>
<line x1="187.567" y1="450.637" x2="63.567" y2="235.863" stroke="#385745"/>
<line x1="157.611" y1="462.904" x2="93.4235" y2="223.355" stroke="#385745"/>
<circle cx="667.5" cy="352.5" r="122" stroke="#385745" stroke-width="9"/>
<circle cx="667.5" cy="352.5" r="7.5" fill="#385745"/>
<line x1="667.5" y1="226" x2="667.5" y2="474" stroke="#385745"/>
<line x1="699.577" y1="230.355" x2="635.389" y2="469.904" stroke="#385745"/>
<line x1="729.433" y1="242.863" x2="605.433" y2="457.637" stroke="#385745"/>
<line x1="755.035" y1="262.672" x2="579.672" y2="438.035" stroke="#385745"/>
<line x1="774.637" y1="288.433" x2="559.863" y2="412.433" stroke="#385745"/>
<line x1="786.904" y1="318.389" x2="547.355" y2="382.577" stroke="#385745"/>
<line x1="791" y1="350.5" x2="543" y2="350.5" stroke="#385745"/>
<line x1="786.645" y1="382.577" x2="547.096" y2="318.389" stroke="#385745"/>
<line x1="774.137" y1="412.433" x2="559.363" y2="288.433" stroke="#385745"/>
<line x1="754.328" y1="438.035" x2="578.965" y2="262.672" stroke="#385745"/>
<line x1="728.567" y1="457.637" x2="604.567" y2="242.863" stroke="#385745"/>
<line x1="698.611" y1="469.904" x2="634.423" y2="230.355" stroke="#385745"/>
<path d="M126 346L261.757 88" stroke="#385745" stroke-width="20" stroke-linecap="round"/>
<path d="M128.514 336C122.991 336 118.514 340.477 118.514 346C118.514 351.523 122.991 356 128.514 356V336ZM128.514 356H395V336H128.514V356Z" fill="#385745"/>
<path d="M229 19L395 346" stroke="#385745" stroke-width="20" stroke-linecap="round"/>
<path d="M541 88L395 346" stroke="#385745" stroke-width="20" stroke-linecap="round"/>
<path d="M515 10L663 346" stroke="#385745" stroke-width="20" stroke-linecap="round"/>
<path d="M270 10L188 10" stroke="#385745" stroke-width="20" stroke-linecap="round"/>
<path d="M509 10L455 10" stroke="#385745" stroke-width="20" stroke-linecap="round"/>
<path d="M272 88H536" stroke="#385745" stroke-width="20" stroke-linecap="round"/>
</svg>
