<svg width="77" height="42" viewBox="0 0 77 42" fill="none" xmlns="http://www.w3.org/2000/svg">
<path d="M7.76 28.448V0.847998H9.92V27.056C9.92 29.648 9.52 31.936 8.72 33.92C7.92 35.904 6.992 37.44 5.936 38.528C4.88 39.616 3.52 40.752 1.856 41.936L0.848 40.496C5.456 37.136 7.76 33.12 7.76 28.448ZM22.9835 21.2L18.5195 32H16.2635L29.3195 0.655997H30.6155L43.7675 32H41.3195L36.8075 21.2H22.9835ZM29.8475 4.208C29.3675 5.648 28.9355 6.848 28.5515 7.808L23.7515 19.328H36.0395L31.2875 7.856C30.5515 6.064 30.0715 4.848 29.8475 4.208ZM50.0881 32V0.655997H51.1441L71.5921 24.176C72.3281 25.008 73.0001 25.84 73.6081 26.672C74.2481 27.472 74.5841 27.888 74.6161 27.92C74.5521 27.152 74.5201 25.648 74.5201 23.408V0.847998H76.7281V32.192H75.6721L54.8401 8.288L52.2001 5.072C52.2641 5.712 52.2961 7.216 52.2961 9.584V32H50.0881Z" fill="#385745"/>
</svg>
